<svg id="Layer_1" data-name="Layer 1" xmlns="http://www.w3.org/2000/svg" viewBox="0 0 150 150"><defs><style>.cls-1{fill:#41abda;}.cls-2{fill:#3b97c0;}.cls-3{fill:#fff;}</style></defs><path class="cls-1" d="M75,10.43c-21.9,0-44.93,15.48-44.93,43.8,0,1.2.08,2.43.19,3.67C32.88,86.15,64.15,126.37,75,139.57h0V10.43Z"/><path class="cls-2" d="M119.93,54.23c0-28.32-23-43.8-44.93-43.8V139.57c6.36-7.74,19.75-24.77,30.26-43.23C113.47,81.93,119.93,66.65,119.93,54.23Z"/><circle class="cls-3" cx="75" cy="54.75" r="33.92"/><path class="cls-1" d="M87,64.69H70.64v-6h13.6a4.75,4.75,0,1,0,0-9.49H70.64V43.4H86.7a4.75,4.75,0,1,0,0-9.49H65.49a5.16,5.16,0,0,0-5.21,5.21V69a5.15,5.15,0,0,0,5.21,5.21H87a4.74,4.74,0,1,0,0-9.48Z"/></svg>